<?xml version="1.0" standalone="no"?>
<!DOCTYPE svg PUBLIC "-//W3C//DTD SVG 20010904//EN"
 "http://www.w3.org/TR/2001/REC-SVG-20010904/DTD/svg10.dtd">
<svg version="1.0" xmlns="http://www.w3.org/2000/svg"
 width="514.000000pt" height="514.000000pt" viewBox="0 0 514.000000 514.000000"
 preserveAspectRatio="xMidYMid meet">

<g transform="translate(0.000000,514.000000) scale(0.100000,-0.100000)"
fill="#000000" stroke="none">
<path d="M2505 3516 c-16 -8 -402 -387 -857 -843 -898 -899 -851 -846 -833
-940 9 -49 69 -109 118 -118 94 -18 46 -59 875 768 l762 762 763 -762 c828
-827 780 -786 874 -768 49 9 109 69 118 118 18 94 65 41 -833 941 -481 482
-840 834 -859 842 -40 17 -89 17 -128 0z"/>
</g>
</svg>
